<svg width="300" height="216" xmlns="http://www.w3.org/2000/svg"><g fill="none" fill-rule="evenodd"><path d="M268.937 31.174c26.303 17.605 37.892 58.64 26.969 88.748-10.923 30.108-44.359 49.287-70.662 63.428-26.303 14.142-45.473 23.245-64.897 23.498-19.423.253-39.1-8.344-62.907-22.485-23.807-14.142-51.745-33.827-58.813-60.584-7.068-26.757 6.734-60.585 30.54-78.19 23.808-17.604 57.62-18.985 95.035-22.59 37.415-3.603 78.432-9.43 104.735 8.175" fill-opacity=".5" fill="#E5F4FE"/><g fill-rule="nonzero"><path d="M193.206 77.062c2.073-.82 1.05-2.844 1.65-4.232.152.615.304 1.23.535 2.149 10.122-10.645 17.617-22.778 24.444-35.58.126 4.788 1.4 9.423 1.46 14.065.046 3.26-3.084 5.66-5.17 8.159-3.375 4.033-6.94 7.908-11.028 11.266-.983.814-2.093 1.647-2.39 3.406 4.886-1.501 8.366-4.807 11.872-7.974 2.681-2.427 4.96-5.277 6.88-8.358.971-1.554 1.665-1.494 2.398.106.99.152 1.016 1.038 1.248 1.719 2.819 8.496 6.979 16.252 12.67 23.175 1.19 1.441 2.41 2.823 3.883 3.98.852.668 1.836 1.27 1.71 2.592-6.398.238-12.81.31-19.155 1.33-5.005-.193-9.878.898-14.302 2.915-4.946 2.255-8.425.37-11.918-2.599a16.049 16.049 0 01-3.157-3.623c1.651 2.632 4.035 4.457 6.577 6.162 2.35 1.574 2.33 2.725-.211 3.987-5.818 2.89-11.338 6.255-16.686 9.925-2.304 1.58-4.457 1.402-6.65-.304-3.42-2.665-5.143-6.182-5.513-10.434-.066-.76.013-1.54-.317-2.261 6.068-5.852 13.12-10.592 18.852-16.828.805-.892 1.545-1.831 2.318-2.743z" fill="#009AED"/><path d="M131.389 47.881l.002.102 17.625-.312c2.938-.05 5.875-.099 8.813-.143 3.9-.062 4.968 1.073 5.07 5.315.073 2.846.066 5.694.19 8.54.133 2.965-1.246 4.505-3.726 5.05-.838.185-1.713.213-2.571.228-16.95.378-33.906.757-50.856 1.11-1.049.024-4.328 4.17-5.373 4.06-1.09-.112-1.179-1.933-1.062-3.873l.03-.449c.093-1.274.247-2.546.24-3.373-.036-3.69-.17-7.385-.073-11.072.079-3.09 1.677-4.634 4.677-4.699 9.002-.195 18.011-.327 27.014-.484zm26.536 1.516c-17.734.36-35.475.657-53.216.948-2.275.033-3.336 1.295-3.323 3.71.018 2.639.254 5.286.115 7.914-.09 1.702-.651 6.062.115 6.569.594.393 2.34-2.883 3.47-2.922 8.62-.302 17.255-.358 25.884-.509l-.002-.107c8.438-.148 16.876-.289 25.314-.442 4.378-.077 4.66-.411 4.609-5.326-.027-2.219-.124-4.437-.07-6.651.058-2.272-.76-3.228-2.896-3.184z" fill="#0A2268"/><path d="M124.506 56.48c-3.228.056-6.455.117-9.687.163-.649.012-1.51.087-1.506-.796.002-.749.857-.654 1.395-.663 6.789-.144 13.578-.267 20.372-.386.549-.01 1.35-.133 1.359.66.005.888-.853.878-1.497.894-3.476.08-6.953.131-10.435.192l-.001-.065zM116.612 61.605c-3.228.057-6.455.118-9.688.164-.648.012-1.51.087-1.505-.796.001-.749.856-.654 1.395-.663 6.789-.144 8.59-.18 15.383-.299.55-.01 1.35-.133 1.36.66.005.888-.854.878-1.497.894-3.477.08-1.965.044-5.447.105l-.001-.065z" fill="#0D246A"/><path d="M156.015 54.702c-1.636 1.745-3.04 1.34-4.312 1.382-2.403.082-9.802.132-12.207.154-.544.004-1.06-.171-1.224-.662-.147-.432.25-.838.673-.875 3.822-.326 12.637-.7 17.07.001z" fill="#1F3575"/><path d="M108.214 57.023l-.984-.043c-.904-.044-2.18-.021-2.15-1.11.038-1.247 1.39-.717 2.186-.806.897-.1 1.81-.071 2.714-.042.574.02 1.194.079 1.268.86.092.997-.662.98-1.31 1.031-.573.045-1.147.025-1.726.035.006.025.006.05.002.075zM128.753 61.653l-.984-.043c-.904-.044-2.181-.022-2.15-1.11.038-1.247 1.39-.717 2.186-.806.897-.1 11.787-.246 12.69-.217.575.02 1.194.08 1.268.861.092.996-.662.98-1.31 1.03-.572.046-11.123.2-11.702.21.006.025.006.05.002.075z" fill="#233978"/><path d="M171.856 96.566c.612 1.858 1.218 3.715 1.836 5.573.706 2.11 1.724 4.027 3.387 5.572 3.147 2.92 4.126 3.045 7.692.617 5.722-3.894 11.724-7.317 18.245-10.608-4.205-2.859-8.005-5.765-9.855-10.442 2.522 2.29 4.638 4.99 7.513 6.9 2.615 1.731 4.85 2.434 8.177.988 4.837-2.103 10.047-3.788 15.57-2.375-5.197 1.048-10.407 2.15-15.21 4.445-1.092.524-3.74.146-2.842 2.614.772 2.11.34 5.506 4.83 4.975-5.123 3.636-9.827 7-11.903 13.375-1.038-3.224.127-5.36 1.524-7.444.805-1.2-.599-7.801-1.816-8.299-.826-.338-1.411.411-2.023.776-4.352 2.607-8.677 5.268-13.015 7.901-.739.452-1.584 1.473-2.322 1.042-3.427-2.037-7.752-2.395-10.593-5.36-1.723-1.798-2.136-4.359-.366-6.33 1.164-1.293 1.018-2.553 1.171-3.92z" fill="#0A2268"/><path d="M263.733 73.813c1.543 1.893 1.313 4.076 1.814 6.016.435 1.688 1.233 2.23 2.822 1.372 1.826-.983 3.685-1.926 5.492-2.949 1.701-.956 2.901-1.049 3.053 1.392.112 1.741.415 3.47.481 5.211.066 1.894.818 2.31 2.499 1.544 1.787-.811 3.64-1.484 5.446-2.276 1.45-.633 2.492-.336 2.44 1.346-.112 3.852-.41 7.698-.666 12.283-1.9-2.25-2.018-4.262-2.262-6.096-.35-2.572-1.457-2.56-3.303-1.53a132.997 132.997 0 01-5.506 2.922c-1.503.752-2.512.554-2.597-1.444-.053-1.3-.324-2.6-.482-3.892-.468-3.8-.461-3.8-4.154-2.276-5.993 2.48-6.059 2.474-5.907-4.077.052-2.434-.488-4.987.83-7.546zM231.435 33.415c.135-2.62 1.885-3.867 2.973-5.419 1.075-1.538.811-2.368-.905-2.938-2.23-.743-4.46-1.499-6.683-2.268-1.777-.617-1.98-1.552-.675-2.919 1.23-1.28 2.317-2.693 3.554-3.973 1.33-1.373.973-2.321-.642-3.017-1.54-.664-3.088-1.32-4.662-1.91-2.109-.797-2.703-1.858-.9-3.602 2.636-2.547 5.4-4.928 9.001-7.369-.419 2.335-1.473 3.641-2.52 4.961-2.277 2.872-2.163 3.19 1.452 4.384 1.379.458 2.777.876 4.15 1.353 3.141 1.088 3.303 1.844 1.006 4.351a15.69 15.69 0 01-.46.485c-4.223 4.424-4.21 4.49 1.602 6.884 4.723 1.95 4.79 2.381.675 5.645-2.182 1.75-3.85 4.198-6.966 5.352zM267.327 11.51c-2.067 2.133-4.093 2.476-5.943 3.056-2.04.639-2.14 1.6-.97 3.096 1.36 1.739 2.625 3.55 4.059 5.223 1.561 1.832.97 2.609-1.198 3.004-1.865.343-3.695.824-5.526 1.311-1.393.369-1.79 1.12-.882 2.41 1.151 1.621 2.168 3.32 3.285 4.961 1.003 1.476.74 2.648-1.084 2.826-3.728.362-7.424 1.482-11.697.777 1.628-1.805 3.695-2.035 5.445-2.674 2.153-.784 2.274-1.693.888-3.3-1.44-1.667-2.72-3.472-4.112-5.178-1.097-1.344-.754-2.213.848-2.628 1.83-.481 3.688-.863 5.532-1.285 1.81-.415 2.524-1.225 1.279-2.964-1.15-1.614-2.16-3.32-3.25-4.98-.66-1.008-.748-2.101.618-2.286 3.944-.527 7.835-1.627 12.708-1.37zM260.84 54.624c2.598.756 4.062 1.966 5.466 3.163 1.802 1.537 2.663.902 3.272-1.043.597-1.906 1.325-3.771 1.855-5.69.656-2.38 1.564-2.942 3.61-1.117 5.373 4.807 5.492 4.787 8.433-2.06 1.02-2.366 1.908-2.667 3.63-.681 2.372 2.728 5.174 5.108 7.161 8.812-2.418-.435-3.915-1.712-5.379-2.922-1.788-1.484-2.894-1.277-3.597.99-.59 1.905-1.258 3.778-1.861 5.676-.676 2.127-1.703 2.755-3.471.977-1.166-1.177-2.438-2.254-3.604-3.437-1.298-1.317-2.226-1.21-2.915.568a127.63 127.63 0 01-1.788 4.3c-1.477 3.436-1.636 3.456-4.352.668-2.266-2.333-4.664-4.58-6.46-8.204z" fill="#009AED"/><path d="M220.912 129.382c-.304 1.65-1.619 2.769-3.698 2.782-1.263.007-4.818-3.873-4.766-4.998.052-1.185 3.659-4.193 4.753-3.967 1.302.26 3.964 4.26 3.71 6.183z" fill="#0D246A"/><path d="M239.604 63.306c-.79 2.178.896 4.344.027 6.517-3.574-1.51-6.812-8.072-6.14-12.469 2.73.124 3.244 3.474 5.778 3.896 1.086.534-.224 1.444.335 2.056z" fill="#009AED"/><path d="M206.992 128.673c-.45-6.785 3.74-12.607 9.946-12.967-5.808 3.072-7.26 8.411-9.946 12.967z" fill="#142B6E"/><path d="M212.946 110.22c-4.758 3.257-7.598 7.692-10.475 12.967-.09-6.798 4.93-12.914 10.475-12.967z" fill="#152C6F"/><path d="M126.012 98.752c.862-.026 1.913.107 2.083 1.008.283 1.475-1.083.794-1.712 1.088-.182.087-.403.094-.598.147-.83.227-1.554 1.101-2.485.587-.183-.1-.195-.814-.088-1.174.277-.915 1.63-1.656 2.8-1.656z" fill="#1B3173"/><path d="M128.133 105.32c-.12.852-.597 1.457-1.395 1.406-1.087-.064-1.552-.891-1.596-1.935-.044-1 .459-1.655 1.458-1.54 1.13.133 1.244 1.215 1.533 2.068z" fill="#1D3374"/><path d="M254.21 82.353c-2.628-15.648-9.242-29.42-19.64-41.346-2.296-2.631-4.798-5.17-8.376-6.135-2.647-.793-2.647-.793-4.766 1.917 1.643-1.302 2.871-1.044 4.04-1.19 2.99 1.104 5.195 3.246 7.195 5.6 8.621 10.108 14.332 21.744 17.916 34.483 1.043 3.716 1.888 7.471 1.334 11.365-.634 4.456-2.813 5.48-6.562 3.068-3.466-2.235-6.106-5.336-8.622-8.542-3.974-5.07-3.96-5.084 1.545-8.178 4.1-2.3 4.516-3.504 2.68-7.887-.336-.807-.772-1.574-1.161-2.36-2.232 1.13.356 3.523-1.34 4.991-2.271-2.77-3.48-5.85-4.331-9.341 2.442.178 2.799 3.53 5.334 2.267-.654-1.13-1.188-2.353-1.98-3.385-2.258-2.955-3.658-3.153-6.846-1.19-2.047 1.256-4.1 2.506-6.153 3.762 3.453 12.383 9.632 23.066 19.5 31.463 5.321 2.71 8.18 1.923 9.58-2.843.626-2.096 1.03-4.284.653-6.519z" fill="#0A2268"/><path d="M214.737 140.369c-1.126 2.967-1.986 6-2.926 9.007-3.834 12.32-8.097 24.48-15.995 34.905-4.423 5.835-9.633 10.915-17.59 10.87-9.31-.06-18.247-2.524-27.132-5.081-1.72-.497-1.099-1.57-.913-2.57 1.562-8.464 3.92-16.684 7.415-24.572.735-1.67 1.41-2.146 3.118-1.02 2.754 1.815 5.66 3.378 8.878 4.305 5.435 1.576 9.394.324 12.81-4.146 1.894-2.477 3.086-5.319 4.125-8.226 2.715-7.604 3.535-15.658 5.522-23.434.516-2.026.51-3.689-.444-5.65-1.966-4.013-1.96-8.073.973-11.789 1.755-1.212 3.51-2.417 5.634-3.888-3.522.808-3.84.98-6.25 3.259-3.091 2.967-4.263 6.776-2.608 10.531 1.741 3.96.768 7.445-.112 11.147-1.907 8.008-2.953 16.28-6.747 23.731-3.747 7.365-8.335 8.81-15.67 5.107-2.94-1.484-5.806-3.133-8.667-4.769-4.674-2.676-9.248-5.55-14.253-7.59-3.119-1.272-6.204-2.901-10.428-2.193 8.415 1.961 15.095 6.2 21.828 10.326 1.02.623 2.099 1.014 1.185 2.736-5.455 10.279-8.434 21.18-7.587 33.13-2.641-.53-4.8-1.597-6.925-2.69-4.88-2.517-9.653-5.259-14.618-7.59-1.867-.88-2.304-1.55-1.887-3.623 1.046-5.22 2.112-10.511.669-15.863-.702 5.763-1.662 11.459-3.059 17.082-2.496 10.034-6.799 19.538-8.62 29.758-.211 1.186-.993 1.298-1.933 1.265-6.05-.212-12.102-.159-18.16-.126-3.727.02-4.938-1.629-5.104-5.444-.12-2.636-.192-5.279-.212-7.921-.132-20.513-.212-41.018-.377-61.53-.047-5.757-.16-5.757 4.568-6.214-1.006-2.046-4.449.153-4.813-2.695-.265-2.067-.199-4.18-.278-6.266-.007-.112 0-.218-.007-.331-.443-28.871-.9-57.742-1.304-86.613-.04-2.855.291-5.716.364-8.57.08-3.1 1.84-4.822 4.555-5.79 1.88-.662 3.84-1 5.826-1.013 5.402-.026 10.805-.026 16.207.007.708.007 1.609-.397 2.085.503.92 1.749.239 4.77 4.065 4.77 12.347 0 24.695.006 37.042 0 .98 0 2.178.337 2.873-.412 2.231-2.417 1.423-4.914 4.065-4.854 4.952.106 13.526.384 18.478.523 6.296.179 7.54 1.225 8.586 7.504.18 1.086.232 2.192.292 3.292.827 15.174.516 30.4 2.052 45.542 3.112-.411.847-2.921 1.655-4.233-.245-4.94-.45-9.882-.748-14.816-.59-9.796-.053-19.618-1.013-29.407-.642-6.538-3.151-9.293-9.613-9.909a81.07 81.07 0 00-7.911-.378c-25.582.04-51.157.126-76.738.193-10.957.026-13.87 2.993-13.95 13.922-.231 31.871.504 63.736 1.199 95.594.026 1.325.179 2.345-1.576 2.603-7.375 1.086-13.254 5.107-18.762 9.796-8.315 7.08-14.393 15.982-20.755 24.738-3.02 4.16-2.98 7.319-.39 11.28 1.661 2.55 4.984 4.96 1.482 8.822 3.575-2.47 5.734-5.63 7.567-8.988.954-1.749 1.556-1.815 3.046-.457 5.31 4.828 10.103 10.147 14.975 15.399 3.695 3.98 3.661 4.007 1.344 8.869-.046.099.14.31.298.629 5.111-4.577 8.964-10.154 13.579-16.194 0 2.066-.014 3.245 0 4.43.086 6.174-.603 12.347-.033 18.513.483 5.239 2.68 7.405 7.812 7.325 21.715-.33 43.423.464 65.138.525 9.243.025 18.511-.379 27.581-2.492 3.992-.927 5.555-2.881 5.813-6.934.146-2.305.39-4.637.225-6.935-.397-5.458.96-9.869 4.535-14.432 8.415-10.743 12.387-23.679 15.65-36.766.597-2.457 1.643-4.875.994-7.524zM85.512 184.016c-3.138 3.385-6.044 6.981-9.17 10.65-9.241-10.067-16.808-21.558-29.407-28.182 7.733-11.438 15.876-22.744 27.945-30.487 2.787-1.788 5.832-3.007 9.037-3.888 1.887-.523 2.476-.145 2.482 1.895.053 8.478.278 16.962.404 25.44.1 6.941.12 13.882.239 20.817.026 1.536-.45 2.596-1.53 3.755zm105.583 23.6c-.39 2.191-2.29 3.026-4.376 3.443-7.693 1.53-15.498 2.08-23.304 2.16-15.968.158-31.93.046-48.521.046 3.337-10.227 7.223-19.307 9.778-29.123 2.887 1.835 5.561 3.537 8.236 5.233 4.105 2.603 8.382 4.815 13.148 5.974 2.953.715 5.747.854 7.673-2.04.854-1.285 1.788-.762 2.867-.49 4.9 1.225 9.818 2.384 14.737 3.563 7.09 1.702 13.744.98 20.226-4.265-.053 5.596.41 10.57-.464 15.498z" fill="#092168"/><path d="M98.097 93.263c-.987-3.34-.007-5.555 1.55-7.518 5.166-6.482 19.637-8.084 26.99-2.716-10.664.418-22.195-2.22-28.54 10.234z" fill="#FAFAFB"/><path d="M136.76 107.184c-2.989-1.484-2.75-4.48-3.972-6.787-1.322-2.492-.97-4.043 1.415-5.926 5.514-4.368 5.135-8.617-.77-12.342-5.913-3.725-12.43-5.627-19.413-5.813-11.008-.298-19.491 6.019-23.444 17.373-3.216 9.233-.784 18.6 8.005 23.981 5.248 3.208 4.923 6.31 3.435 10.798-.499 1.498-1.389 3.241-.246 4.766 4.02 5.355 8.497 10.2 15.293 12.05 2.498.683 3.94.378 5.64-1.114-4.205.597-7.78-.894-10.536-3.433-4.285-3.95-10.424-6.96-7.82-14.973 1.037-3.195 1.728-4.077 5.016-3.195 3.84 1.027 7.095-.63 7.408-3.56.531-4.925.624-9.89.903-14.84.013-.22.013-.63-.013-.63-3.01-.272-.738-1.81-.392-2.353 1.946-3.03 7.726-5.177 11.2-4.355.658.152 1.396.285 1.562 1.027.877 3.878 3.129 7.47 2.338 11.62 1.156.344 2.166-2.108 3.023-.345.777 1.598.459 3.56-1.428 4.54-.844.438-1.927.438-2.897.624-2.717.517-5.348 1.266-7.866 2.452-3.016 1.425-3.946 3.639-2.923 6.734.286.862.671 1.684 1.017 2.532-1.276.425-2.272-1.206-3.422.146 2.631.603 3.74 1.922 3.329 4.852-.312 2.24.08 4.773 2.298 6.794v-8.517c2.492 2.4 4.465 4.732 7.182 6.091 3.056 1.525 4.524 1.014 5.467-2.247 1.555-5.369 1.741-10.877.984-16.385-.26-1.889-.505-3.612.451-5.395.83-1.538.492-3.513-.823-4.17zm-7.918 11.759c-1.163-.1-1.82-.809-2.399-2.46h5.07c1.089.06 2.152-.96 3.241-.072.1.086.093.464-.006.61-.864 1.226-2.126.59-3.236.63-.425.013-.85-.093-1.275-.146-.79.192-2.08-.067-1.395 1.438.033 0 .06.013.093.013 0 0-.06.06-.067.06a.323.323 0 01-.026-.073zm6.617 2.545c-.054 1.36-.95 1.293-1.827.908-1.787-.775-3.787-1.312-4.657-3.354-.034-.006-.073-.02-.107-.026l.067-.06c.013.033.033.053.046.086 1.635.352 3.182 1.167 4.95.716 1.528-.397 1.567.696 1.528 1.73zM145.229 203.409c-.212 3.082-1.53 5.445-5.03 5.557-3.528.103-5.125-2.186-5.211-5.324-.087-3.166 1.567-5.529 4.952-5.641 3.423-.112 4.962 2.223 5.289 5.408z" fill="#092168"/><g fill="#3E3771"><path d="M219.185 140.776c.546 2.305 1.05 4.61 1.679 6.915 2.728 9.903 9.738 14.684 21.156 14.428 8.52-.17 16.916-6.787 18.847-14.897 1.05-4.44.588-8.75-.798-12.977-.168-.555-.503-1.024-.587-1.58-.126-.64-1.134-1.45 0-1.92.923-.384 1.007.768 1.259 1.323 1.93 4.311 2.435 8.836 1.889 13.532-1.343 11.012-12.215 18.354-22.373 17.97-3.19-.128-6.422-.512-9.403-1.835-7.346-3.287-10.62-9.434-11.627-17.16-.168-1.238-.21-2.476-.294-3.714.042-.042.126-.085.252-.085zM260.174 130.564c1.529-2.644 3.651-4.916 3.99-8.22-2.25 1.073-4.372 2.188-6.621 2.973-1.656.537-2.802.455-4.118-.867-5.39-5.577-14.433-6.568-22.116-2.685-.891.454-1.74 1.115-3.396 1.156 3.566-3.056 7.302-4.378 11.42-4.668 5.9-.371 11.163 1.157 15.323 5.536.637.702 1.274.62 2.08.33 2.632-.826 5.094-1.941 7.386-3.51.68-.455 1.825-1.116 1.698.37-.297 3.801-1.528 7.271-4.924 9.626-.085.124-.255.041-.722-.041z"/><path d="M232.902 147.71c2.498-.73 4.873-.584 7.208-.547 2.702.036 5.405.182 8.108.292.573.036 1.187.073 1.146.73-.04.473-.573.437-.942.437-4.996-.146-10.032 0-15.028-.474-.123 0-.205-.146-.492-.438zM250.364 137.604c-1.976 1.113-16.904.37-18.46-.866 6.182-.206 12.32-.082 18.46.866zM231.905 141.94c6.195-.598 12.348-.322 18.459 1.015-6.196.414-12.349.138-18.46-1.014z"/></g><path d="M79.785 5.763c-10.551 6.863-9.546 23.994.103 28.403 3.352 1.536 1.564 4.427 1.487 6.769-.069 1.767-1.701 3.285-1.057 5.447 4.116-.875 7.003-3.414 8.953-6.734 1.332-2.273 2.887-2.77 5.207-2.65 4.743.24 9.392-.627 13.929-1.828 8.893-2.35 14.177-8.604 14.237-16.445.06-7.84-5.19-13.811-14.46-16.102-9.813-2.419-19.41-2.71-28.399 3.14zm9.986 16.63c5.21-.188 10.368-1.355 15.605-.798.464.045 1.156.547 1.261.97.132.513-.052.864-.379 1.089-.227.296-.655.454-1.108.51-3.093.386-6.16 1.175-9.16.866-2.019 0-3.874.035-5.722-.017-.643-.014-1.238-.338-1.41-.9a1.193 1.193 0 01-.138-.57c0-.395.665-1.131 1.05-1.15zm1.473-6.89c5.788-.068 11.576-.034 17.372-.034.017.438.034.884.06 1.322l-.045.014.016.342c-3.48 1.104-7.054 1.142-10.635 1.087l-1.896-.033c-1.685-.028-3.368-.038-5.04.07-.748.051-1.95.326-2.088-.815-.055-.488.088-.838.338-1.084.306-.67 1.203-.863 1.918-.87z" fill="#009AED"/><g><path d="M35.208 66.348c-5.842 3.123.467-10.56 21.238-36.276 0 0-2.474 29.62-.42 50.037a2.363 2.363 0 01-2.67 2.59l-10.968-1.48-1.704 4.299a.969.969 0 01-1.708.166l-3.617-5.575c.02.013 2.57-15.218-.151-13.761z" fill="#009AED"/><path d="M25.709 79.688c-2.86-3.215-.332-7.752.99-11.093A91.47 91.47 0 0150.95 34.622c1.037-.925 5.465-4.564 5.736-4.408.22-.103-.132.353-5.534 20.913-9.575 36.44-7.094 28.347-9.37 34.198-.545 1.401-2.316 2.711-3.526 1.047-1.133-1.753-2.249-3.529-3.405-5.292-.143-.216-2.863.171-3.207.214-2.155.02-4.293.24-5.935-1.606zm19.667-13.263c1.88-6.94 7.6-27.635 10.349-34.222a173.643 173.643 0 00-10.056 19.832 176.52 176.52 0 00-9.24 27.889 54.017 54.017 0 003.36 5.184 13.11 13.11 0 001.345-3.165c1.828-5.006 2.848-10.368 4.242-15.518zm-15.75 13.35c1.773-.014 3.396-.078 4.928-.133 3.636-15.53 11.814-35.722 21.047-48.107a137.247 137.247 0 00-15.506 17.247A97.978 97.978 0 0028.587 68.9c-1.126 2.704-4.022 7.207-1.425 9.85.65.66 1.539 1.03 2.465 1.024zM35.147 89.482c.397-3.037.055-2.826-.766.12-3.82 13.694.083 26.18 7.266 38.117.941 1.56 2.419 3.058 2.52 4.967.078 1.493-.901 4.254-2.852 3.128-.542-.314-1.366-1.135-1.125-1.858.15-.448 1.727-1.123.236-.828a1.222 1.222 0 00-1.001 1.272 3.136 3.136 0 001.477 2.408c2.227 1.53 4.348-.977 4.645-3.03.617-4.27-3.357-6.384-7.797-17.883-3.638-9.42-3.82-17.089-2.603-26.413zM39.78 91.996c-.328-3.354-.565-3.042-.694.322a49.39 49.39 0 001.6 13.34c2.916 12.215 5.893 16.308 9.893 22.149a20.356 20.356 0 004.209 4.734 10.043 10.043 0 005.618 2.386 4.562 4.562 0 004.701-3.266c.557-2.307-1.596-5.46-4.067-5.352-1.461.065-3.12 2.06-1.717 3.3a2.57 2.57 0 01.04-1.371c.643-1.614 2.488-1.246 3.4-.13a3.628 3.628 0 01.92 3.561c-1.477 3.57-6.549.713-8.32-.914-2.327-2.138-3.952-4.992-5.678-7.622-5.627-8.57-8.897-20.851-9.904-31.137z" fill="#3E3771"/></g></g></g></svg>