<?xml version="1.0" encoding="utf-8"?>
<!-- Generator: Adobe Illustrator 27.5.0, SVG Export Plug-In . SVG Version: 6.00 Build 0)  -->
<svg version="1.1" id="Camada_1" xmlns="http://www.w3.org/2000/svg" xmlns:xlink="http://www.w3.org/1999/xlink" x="0px" y="0px"
	 viewBox="0 0 1300 1300" style="enable-background:new 0 0 1300 1300;" xml:space="preserve">
<g>
	<linearGradient id="SVGID_1_" gradientUnits="userSpaceOnUse" x1="445.5623" y1="568.7589" x2="805.6639" y2="208.6573">
		<stop  offset="0" style="stop-color:#F37021"/>
		<stop  offset="0.199" style="stop-color:#BA141A"/>
		<stop  offset="1" style="stop-color:#710000"/>
	</linearGradient>
	<polygon style="fill:url(#SVGID_1_);" points="457.06,348.704 825.187,230.03 825.187,397.692 457.06,516.365 	"/>
	
		<linearGradient id="SVGID_00000183219342898676711350000002174896075948841898_" gradientUnits="userSpaceOnUse" x1="445.5623" y1="831.4457" x2="805.6639" y2="471.3441">
		<stop  offset="0" style="stop-color:#F37021"/>
		<stop  offset="0.199" style="stop-color:#BA141A"/>
		<stop  offset="1" style="stop-color:#710000"/>
	</linearGradient>
	<polygon style="fill:url(#SVGID_00000183219342898676711350000002174896075948841898_);" points="457.06,611.391 825.187,492.717 
		825.187,660.378 457.06,779.051 	"/>
	
		<linearGradient id="SVGID_00000070113962214637914760000007847599221407204510_" gradientUnits="userSpaceOnUse" x1="455.1776" y1="501.9147" x2="827.0694" y2="501.9147">
		<stop  offset="0" style="stop-color:#050505"/>
		<stop  offset="0.2304" style="stop-color:#0B0B0C"/>
		<stop  offset="0.556" style="stop-color:#1E1D1E"/>
		<stop  offset="0.9369" style="stop-color:#3B3A3C"/>
		<stop  offset="1" style="stop-color:#414042"/>
	</linearGradient>
	<polygon style="fill:url(#SVGID_00000070113962214637914760000007847599221407204510_);" points="455.178,518.949 721.028,555.682 
		827.069,490.31 600.051,448.147 	"/>
	<g>
		
			<linearGradient id="SVGID_00000114778473869781664140000017283097773604393910_" gradientUnits="userSpaceOnUse" x1="503.4659" y1="567.2369" x2="835.1628" y2="235.54">
			<stop  offset="0" style="stop-color:#710000"/>
			<stop  offset="0.801" style="stop-color:#BA141A"/>
			<stop  offset="1" style="stop-color:#F37021"/>
		</linearGradient>
		<path style="fill:url(#SVGID_00000114778473869781664140000017283097773604393910_);" d="M630.692,397.455
			c-55.66,28.205-114.826,47.933-175.515,62.642v58.852l371.892-119.887V227.447l-1.288,0.415
			C778.967,300.317,708.297,358.13,630.692,397.455z"/>
		
			<linearGradient id="SVGID_00000137104895786437388160000008300185851563180707_" gradientUnits="userSpaceOnUse" x1="435.4873" y1="499.2583" x2="767.1842" y2="167.5614">
			<stop  offset="0" style="stop-color:#F37021"/>
			<stop  offset="0.199" style="stop-color:#BA141A"/>
			<stop  offset="1" style="stop-color:#710000"/>
		</linearGradient>
		<path style="fill:url(#SVGID_00000137104895786437388160000008300185851563180707_);" d="M825.781,227.862L455.178,347.333
			v112.764c60.689-14.709,119.855-34.437,175.515-62.642C708.297,358.13,778.967,300.317,825.781,227.862z"/>
	</g>
	<g>
		
			<linearGradient id="SVGID_00000114043559141067824390000007996557176713814173_" gradientUnits="userSpaceOnUse" x1="535.3066" y1="530.0674" x2="747.1169" y2="741.8777">
			<stop  offset="0" style="stop-color:#F37021"/>
			<stop  offset="0.199" style="stop-color:#BA141A"/>
			<stop  offset="1" style="stop-color:#710000"/>
		</linearGradient>
		<path style="fill:url(#SVGID_00000114043559141067824390000007996557176713814173_);" d="M827.069,566.044V490.31L455.178,610.196
			v171.262c54.049-53.002,117.794-96.265,184.734-132.048C700.198,617.185,763.25,590.685,827.069,566.044z"/>
		
			<linearGradient id="SVGID_00000058587744935598241930000003387548504160922791_" gradientUnits="userSpaceOnUse" x1="202.7945" y1="673.9277" x2="827.0694" y2="673.9277">
			<stop  offset="0" style="stop-color:#CE181E"/>
			<stop  offset="1" style="stop-color:#670000"/>
		</linearGradient>
		<path style="fill:url(#SVGID_00000058587744935598241930000003387548504160922791_);" d="M827.069,661.925v-95.882
			c-63.819,24.641-126.872,51.141-187.158,83.367c-66.94,35.783-130.685,79.046-184.734,132.048v0.353L827.069,661.925z"/>
	</g>
</g>
<g>
	<path d="M328.419,937.087l0.161-25.863h21.337l1.293,13.739c4.526,1.94,12.77,4.366,21.661,4.366c12.285,0,24.57-2.91,24.57-14.711
		c0-12.446-17.62-12.446-25.541-13.901c-22.953-2.586-42.836-8.245-42.35-34.431c0.323-22.468,21.822-33.622,46.392-33.622
		c20.529,0,31.682,5.981,39.118,12.932c-0.161,9.537-0.485,14.709-0.485,24.086h-20.852l-1.132-13.418
		c-4.687-2.1-9.537-3.071-17.619-3.071c-11.315,0-21.014,3.395-21.176,12.932c-0.161,8.083,7.112,11.316,20.691,12.932
		c24.57,2.91,47.686,7.274,47.2,35.562c0,22.146-16.972,36.371-48.494,36.371C349.756,950.341,339.249,946.462,328.419,937.087z"/>
	<path d="M536.779,948.402v-21.499h11.477v-56.737l-36.047,42.19h-4.849l-34.915-43.16v57.708h10.992v21.499h-47.686v-21.499h12.932
		v-69.831h-12.932V835.25h40.896l33.946,44.938l33.784-44.938h39.765v21.822h-12.285v69.831h11.962v21.499H536.779z"/>
	<path d="M683.394,913.81h-47.847l-5.658,12.77h11.638v21.822h-46.876V926.58h10.021l32.491-69.831h-10.507V835.25h47.201
		l39.766,91.33h9.859v21.822h-47.201V926.58h12.447L683.394,913.81z M652.196,876.954l-7.436,16.489h30.068l-6.952-16.489
		l-7.436-20.043L652.196,876.954z"/>
	<path d="M783.131,905.243h-13.254v21.175h10.992v21.984h-46.716v-21.984h11.638v-69.507h-12.447V835.25h63.365
		c20.206,0,41.381,6.143,41.543,33.945c0,21.984-12.123,33.138-29.096,34.755l20.368,22.468h13.092v21.984h-39.279v-18.428
		L783.131,905.243z M796.709,885.521c14.225,0,17.458-7.112,17.458-14.547c0-11.316-9.214-14.225-17.458-14.225h-26.832v28.772
		H796.709z"/>
	<path d="M878.178,948.402v-21.66h13.578v-70.639h-17.134l-0.971,16.003h-20.529V835.25h100.705v37.017H933.3l-1.455-16.165h-16.811
		v70.639h13.578v21.66H878.178z"/>
</g>
<g>
	<path style="fill:#6D6E71;" d="M331.156,980.015v24.814h4.94v3.351h-13.571v-3.351h4.94v-21.463h-4.827v-3.351H331.156z
		 M326.727,971.27c0-1.76,1.363-2.556,2.612-2.556c1.249,0,2.612,0.797,2.612,2.556c0,1.817-1.363,2.556-2.612,2.556
		C328.09,973.826,326.727,973.029,326.727,971.27z"/>
	<path style="fill:#6D6E71;" d="M348.02,1004.828h4.656v3.351h-13.287v-3.351h4.997v-21.407h-4.883v-3.293h8.234l0.17,5.055
		c2.499-4.032,6.133-5.566,9.994-5.566c7.95,0,12.152,4.658,12.152,12.777v12.435h4.997v3.351h-13.06v-3.351h4.372v-12.377
		c0-6.36-2.782-9.37-8.745-9.37c-5.508,0-9.596,4.031-9.596,9.767V1004.828z"/>
	<path style="fill:#6D6E71;" d="M385.383,971.782v8.404h9.142v3.122h-9.199v15.957c0,3.577,0.965,5.962,4.827,5.962
		c1.306,0,2.953-0.454,4.316-1.136l1.136,3.066c-1.817,0.851-3.691,1.363-5.508,1.42c-6.019,0.056-8.404-3.351-8.404-9.313v-15.957
		H375.9v-3.122h5.792v-8.007L385.383,971.782z"/>
	<path style="fill:#6D6E71;" d="M425.3,1003.41c-2.782,3.463-7.666,5.168-12.095,5.168c-8.29,0-14.48-5.509-14.48-14.481
		c0-8.518,6.019-14.481,14.31-14.481c8.234,0,15.105,4.941,14.026,16.015h-24.644c0.568,6.133,5.281,9.54,10.846,9.54
		c3.464,0,7.609-1.42,9.597-3.976L425.3,1003.41z M423.597,992.563c-0.114-6.245-4.259-9.596-10.505-9.596
		c-5.451,0-9.994,3.407-10.675,9.596H423.597z"/>
	<path style="fill:#6D6E71;" d="M436.315,983.422h-4.883v-3.293h8.12l0.341,4.656c1.704-3.407,5.338-5.111,9.142-5.111
		c2.271,0,4.316,0.681,6.246,1.875l-1.647,3.122c-1.533-0.909-3.066-1.42-4.827-1.42c-5.451,0.115-8.802,3.634-8.802,8.916v12.777
		h4.77v3.236h-13.287v-3.236h4.827V983.422z"/>
	<path style="fill:#6D6E71;" d="M466.352,1004.828h4.656v3.351h-13.287v-3.351h4.997v-21.407h-4.883v-3.293h8.234l0.17,5.055
		c2.499-4.032,6.133-5.566,9.994-5.566c7.95,0,12.152,4.658,12.152,12.777v12.435h4.997v3.351h-13.06v-3.351h4.372v-12.377
		c0-6.36-2.782-9.37-8.745-9.37c-5.508,0-9.596,4.031-9.596,9.767V1004.828z"/>
	<path style="fill:#6D6E71;" d="M530.516,1004.886v3.293h-8.234c0-0.737-0.341-4.487-0.341-5.28
		c-2.215,4.201-6.814,5.906-10.959,5.848c-7.95,0-14.31-5.509-14.31-14.594c0-8.97,6.36-14.479,14.31-14.479
		c4.429,0,9.029,1.987,11.016,6.075l0.057-5.678h8.404v3.407h-4.883v21.408H530.516z M500.307,994.268
		c0,6.814,4.827,11.072,10.846,11.072c7.041,0,10.903-5.282,11.016-10.903c0.114-5.792-3.691-11.243-11.13-11.243
		C505.077,983.195,500.307,987.51,500.307,994.268z"/>
	<path style="fill:#6D6E71;" d="M542.438,971.782v8.404h9.142v3.122h-9.199v15.957c0,3.577,0.965,5.962,4.827,5.962
		c1.306,0,2.953-0.454,4.316-1.136l1.136,3.066c-1.817,0.851-3.691,1.363-5.508,1.42c-6.019,0.056-8.404-3.351-8.404-9.313v-15.957
		h-5.792v-3.122h5.792v-8.007L542.438,971.782z"/>
	<path style="fill:#6D6E71;" d="M564.242,980.015v24.814h4.94v3.351h-13.571v-3.351h4.94v-21.463h-4.827v-3.351H564.242z
		 M559.813,971.27c0-1.76,1.363-2.556,2.612-2.556s2.612,0.797,2.612,2.556c0,1.817-1.363,2.556-2.612,2.556
		S559.813,973.029,559.813,971.27z"/>
	<path style="fill:#6D6E71;" d="M587.522,979.56c8.29,0,14.48,5.85,14.48,14.65c0,8.745-6.303,14.423-14.48,14.423
		c-8.12,0-14.423-5.678-14.423-14.423C573.099,985.352,579.402,979.56,587.522,979.56z M587.579,982.967
		c-6.076,0-10.789,4.429-10.789,11.243c0,6.587,4.713,10.96,10.732,10.96c6.076,0,10.789-4.373,10.846-10.96
		C598.368,987.397,593.598,982.967,587.579,982.967z"/>
	<path style="fill:#6D6E71;" d="M615.231,1004.828h4.656v3.351H606.6v-3.351h4.997v-21.407h-4.883v-3.293h8.234l0.17,5.055
		c2.498-4.032,6.133-5.566,9.994-5.566c7.95,0,12.152,4.658,12.152,12.777v12.435h4.997v3.351H629.2v-3.351h4.372v-12.377
		c0-6.36-2.782-9.37-8.745-9.37c-5.508,0-9.596,4.031-9.596,9.767V1004.828z"/>
	<path style="fill:#6D6E71;" d="M679.396,1004.886v3.293h-8.234c0-0.737-0.341-4.487-0.341-5.28
		c-2.215,4.201-6.814,5.906-10.959,5.848c-7.95,0-14.31-5.509-14.31-14.594c0-8.97,6.36-14.479,14.31-14.479
		c4.428,0,9.029,1.987,11.015,6.075l0.058-5.678h8.404v3.407h-4.883v21.408H679.396z M649.187,994.268
		c0,6.814,4.827,11.072,10.846,11.072c7.041,0,10.903-5.282,11.016-10.903c0.114-5.792-3.69-11.243-11.13-11.243
		C653.956,983.195,649.187,987.51,649.187,994.268z"/>
	<path style="fill:#6D6E71;" d="M682.743,968.431h8.519v36.398h4.882v3.351h-13.571v-3.351h5.055v-33.104h-4.885V968.431z"/>
	<path style="fill:#6D6E71;" d="M713.632,1008.18v-3.351h4.941v-33.162h-4.941v-3.236h8.631v17.376
		c2.271-4.429,6.814-6.133,11.016-6.133c7.95,0,14.196,5.282,14.196,14.479c0,9.143-6.304,14.425-14.254,14.481
		c-4.485,0-8.743-1.931-10.959-5.962l-0.227,5.507H713.632z M722.377,994.153c0,6.19,4.258,10.96,10.618,10.96
		c5.906,0,10.791-3.975,10.791-10.96c0-7.097-4.77-11.072-10.675-11.072C726.635,983.081,722.377,988.02,722.377,994.153z"/>
	<path style="fill:#6D6E71;" d="M781.202,1004.828h4.939v3.351h-7.95l-0.566-5.111c-2.442,3.804-5.849,5.509-10.165,5.565
		c-8.006,0-12.152-4.826-12.152-12.72v-12.549h-4.656v-3.237H759v15.73c0,6.189,3.009,9.313,9.085,9.313
		c5.563-0.058,9.425-4.26,9.425-9.767v-12.038h-4.882v-3.237h8.574V1004.828z"/>
	<path style="fill:#6D6E71;" d="M812.089,988.363h-3.18l-0.112-4.316c-1.817-0.966-4.885-1.478-6.985-1.478
		c-4.316,0-7.723,1.534-7.667,4.941c0.058,3.293,3.861,4.032,7.78,4.543c5.055,0.737,11.925,1.646,11.811,8.46
		c-0.058,5.963-5.906,8.234-11.811,8.234c-4.485,0-7.609-1.022-11.584-3.294l0.114-6.587h3.236l0.115,4.372
		c2.441,1.307,5.451,2.102,8.233,2.102c3.18,0,8.063-0.851,8.121-4.939c0.056-3.634-3.919-4.543-8.462-5.055
		c-5.055-0.739-11.187-1.931-11.187-7.836c-0.056-5.792,5.678-8.177,11.301-8.121c3.521,0,7.324,0.853,10.448,2.556L812.089,988.363
		z"/>
	<path style="fill:#6D6E71;" d="M826.796,980.015v24.814h4.941v3.351h-13.572v-3.351h4.941v-21.463h-4.826v-3.351H826.796z
		 M822.368,971.27c0-1.76,1.363-2.556,2.611-2.556c1.251,0,2.614,0.797,2.614,2.556c0,1.817-1.363,2.556-2.614,2.556
		C823.731,973.826,822.368,973.029,822.368,971.27z"/>
	<path style="fill:#6D6E71;" d="M843.658,1004.828h4.658v3.351h-13.289v-3.351h4.997v-21.407h-4.882v-3.293h8.233l0.171,5.055
		c2.498-4.032,6.133-5.566,9.994-5.566c7.95,0,12.15,4.658,12.15,12.777v12.435h4.997v3.351h-13.059v-3.351H862v-12.377
		c0-6.36-2.782-9.37-8.745-9.37c-5.509,0-9.597,4.031-9.597,9.767V1004.828z"/>
	<path style="fill:#6D6E71;" d="M900.499,1003.41c-2.782,3.463-7.667,5.168-12.094,5.168c-8.292,0-14.481-5.509-14.481-14.481
		c0-8.518,6.019-14.481,14.31-14.481c8.233,0,15.105,4.941,14.026,16.015h-24.646c0.569,6.133,5.282,9.54,10.847,9.54
		c3.463,0,7.609-1.42,9.596-3.976L900.499,1003.41z M898.795,992.563c-0.114-6.245-4.258-9.596-10.506-9.596
		c-5.451,0-9.994,3.407-10.675,9.596H898.795z"/>
	<path style="fill:#6D6E71;" d="M929.286,988.363h-3.18l-0.112-4.316c-1.817-0.966-4.885-1.478-6.985-1.478
		c-4.316,0-7.723,1.534-7.667,4.941c0.058,3.293,3.861,4.032,7.78,4.543c5.055,0.737,11.925,1.646,11.811,8.46
		c-0.058,5.963-5.906,8.234-11.811,8.234c-4.485,0-7.609-1.022-11.584-3.294l0.114-6.587h3.236l0.115,4.372
		c2.441,1.307,5.451,2.102,8.233,2.102c3.18,0,8.063-0.851,8.121-4.939c0.056-3.634-3.919-4.543-8.462-5.055
		c-5.055-0.739-11.187-1.931-11.187-7.836c-0.056-5.792,5.678-8.177,11.301-8.121c3.521,0,7.324,0.853,10.448,2.556L929.286,988.363
		z"/>
	<path style="fill:#6D6E71;" d="M958.075,988.363h-3.18l-0.115-4.316c-1.817-0.966-4.882-1.478-6.984-1.478
		c-4.316,0-7.723,1.534-7.665,4.941c0.056,3.293,3.861,4.032,7.779,4.543c5.053,0.737,11.925,1.646,11.811,8.46
		c-0.056,5.963-5.906,8.234-11.811,8.234c-4.487,0-7.609-1.022-11.584-3.294l0.114-6.587h3.237l0.112,4.372
		c2.443,1.307,5.451,2.102,8.234,2.102c3.18,0,8.063-0.851,8.119-4.939c0.058-3.634-3.917-4.543-8.46-5.055
		c-5.053-0.739-11.186-1.931-11.186-7.836c-0.058-5.792,5.678-8.177,11.299-8.121c3.521,0,7.326,0.853,10.448,2.556L958.075,988.363
		z"/>
</g>
</svg>
